<mxfile host="app.diagrams.net" agent="Mozilla/5.0 (Windows NT 10.0; Win64; x64) AppleWebKit/537.36 (KHTML, like Gecko) Chrome/132.0.0.0 Safari/537.36" version="26.0.4">
  <diagram name="페이지-1" id="jtsSnlM7iirWxvn57SnH">
    <mxGraphModel dx="2049" dy="1114" grid="1" gridSize="10" guides="1" tooltips="1" connect="1" arrows="1" fold="1" page="1" pageScale="1" pageWidth="1390" pageHeight="980" math="0" shadow="0">
      <root>
        <mxCell id="0" />
        <mxCell id="1" parent="0" />
        <mxCell id="0ALipL2Myr9kqnd2Wa-G-112" value="" style="rounded=0;whiteSpace=wrap;html=1;fillColor=none;" parent="1" vertex="1">
          <mxGeometry x="60" y="120" width="1270" height="450" as="geometry" />
        </mxCell>
        <mxCell id="0ALipL2Myr9kqnd2Wa-G-7" value="" style="group" parent="1" vertex="1" connectable="0">
          <mxGeometry x="350" y="130" width="170" height="360" as="geometry" />
        </mxCell>
        <mxCell id="0ALipL2Myr9kqnd2Wa-G-2" value="" style="rounded=0;whiteSpace=wrap;html=1;labelBackgroundColor=none;fillColor=none;dashed=1;" parent="0ALipL2Myr9kqnd2Wa-G-7" vertex="1">
          <mxGeometry y="20.76923076923077" width="170" height="339.2307692307692" as="geometry" />
        </mxCell>
        <mxCell id="0ALipL2Myr9kqnd2Wa-G-6" value="FilterChain" style="text;html=1;align=center;verticalAlign=middle;resizable=0;points=[];autosize=1;strokeColor=none;fillColor=none;" parent="0ALipL2Myr9kqnd2Wa-G-7" vertex="1">
          <mxGeometry width="80" height="30" as="geometry" />
        </mxCell>
        <mxCell id="0ALipL2Myr9kqnd2Wa-G-18" style="edgeStyle=orthogonalEdgeStyle;rounded=0;orthogonalLoop=1;jettySize=auto;html=1;startArrow=classic;startFill=1;" parent="0ALipL2Myr9kqnd2Wa-G-7" source="0ALipL2Myr9kqnd2Wa-G-8" target="0ALipL2Myr9kqnd2Wa-G-9" edge="1">
          <mxGeometry relative="1" as="geometry" />
        </mxCell>
        <mxCell id="0ALipL2Myr9kqnd2Wa-G-8" value="Filter 0" style="rounded=0;whiteSpace=wrap;html=1;fillStyle=auto;fillColor=#99FF99;" parent="0ALipL2Myr9kqnd2Wa-G-7" vertex="1">
          <mxGeometry x="25" y="40" width="125" height="40" as="geometry" />
        </mxCell>
        <mxCell id="0ALipL2Myr9kqnd2Wa-G-19" style="edgeStyle=orthogonalEdgeStyle;rounded=0;orthogonalLoop=1;jettySize=auto;html=1;startArrow=classic;startFill=1;" parent="0ALipL2Myr9kqnd2Wa-G-7" source="0ALipL2Myr9kqnd2Wa-G-9" target="0ALipL2Myr9kqnd2Wa-G-10" edge="1">
          <mxGeometry relative="1" as="geometry" />
        </mxCell>
        <mxCell id="0ALipL2Myr9kqnd2Wa-G-20" style="edgeStyle=orthogonalEdgeStyle;rounded=0;orthogonalLoop=1;jettySize=auto;html=1;startArrow=classic;startFill=1;" parent="0ALipL2Myr9kqnd2Wa-G-7" source="0ALipL2Myr9kqnd2Wa-G-10" target="0ALipL2Myr9kqnd2Wa-G-11" edge="1">
          <mxGeometry relative="1" as="geometry" />
        </mxCell>
        <mxCell id="0ALipL2Myr9kqnd2Wa-G-10" value="Filter 2" style="rounded=0;whiteSpace=wrap;html=1;fillColor=#99FF99;" parent="0ALipL2Myr9kqnd2Wa-G-7" vertex="1">
          <mxGeometry x="25" y="230" width="125" height="40" as="geometry" />
        </mxCell>
        <mxCell id="0ALipL2Myr9kqnd2Wa-G-11" value="Servlet" style="rounded=0;whiteSpace=wrap;html=1;fillColor=#99FF99;" parent="0ALipL2Myr9kqnd2Wa-G-7" vertex="1">
          <mxGeometry x="25" y="310" width="125" height="40" as="geometry" />
        </mxCell>
        <mxCell id="0ALipL2Myr9kqnd2Wa-G-24" value="" style="group" parent="0ALipL2Myr9kqnd2Wa-G-7" vertex="1" connectable="0">
          <mxGeometry x="17.5" y="110" width="140" height="80" as="geometry" />
        </mxCell>
        <mxCell id="0ALipL2Myr9kqnd2Wa-G-9" value="" style="rounded=0;whiteSpace=wrap;html=1;fillColor=#99FF99;" parent="0ALipL2Myr9kqnd2Wa-G-24" vertex="1">
          <mxGeometry x="7.5" width="125" height="70" as="geometry" />
        </mxCell>
        <mxCell id="0ALipL2Myr9kqnd2Wa-G-23" value="DelegatingFilterProxy" style="text;html=1;align=center;verticalAlign=middle;resizable=0;points=[];autosize=1;strokeColor=none;fillColor=none;" parent="0ALipL2Myr9kqnd2Wa-G-24" vertex="1">
          <mxGeometry width="140" height="30" as="geometry" />
        </mxCell>
        <mxCell id="0ALipL2Myr9kqnd2Wa-G-25" value="FilterChainProxy" style="rounded=0;whiteSpace=wrap;html=1;gradientColor=none;fillColor=#FFCCE6;" parent="0ALipL2Myr9kqnd2Wa-G-24" vertex="1">
          <mxGeometry x="22.5" y="30" width="97.5" height="30" as="geometry" />
        </mxCell>
        <mxCell id="0ALipL2Myr9kqnd2Wa-G-22" style="edgeStyle=orthogonalEdgeStyle;rounded=0;orthogonalLoop=1;jettySize=auto;html=1;startArrow=classic;startFill=1;endArrow=none;endFill=0;" parent="1" source="0ALipL2Myr9kqnd2Wa-G-1" target="0ALipL2Myr9kqnd2Wa-G-8" edge="1">
          <mxGeometry relative="1" as="geometry">
            <Array as="points">
              <mxPoint x="230" y="200" />
              <mxPoint x="230" y="200" />
            </Array>
          </mxGeometry>
        </mxCell>
        <mxCell id="0ALipL2Myr9kqnd2Wa-G-111" value="Header:&lt;br&gt;AccessToken&lt;br&gt;RefreshToken" style="edgeLabel;html=1;align=center;verticalAlign=middle;resizable=0;points=[];" parent="0ALipL2Myr9kqnd2Wa-G-22" vertex="1" connectable="0">
          <mxGeometry x="0.2812" y="1" relative="1" as="geometry">
            <mxPoint as="offset" />
          </mxGeometry>
        </mxCell>
        <mxCell id="0ALipL2Myr9kqnd2Wa-G-1" value="client" style="rounded=0;whiteSpace=wrap;html=1;" parent="1" vertex="1">
          <mxGeometry x="75" y="160" width="120" height="60" as="geometry" />
        </mxCell>
        <mxCell id="0ALipL2Myr9kqnd2Wa-G-3" value="&lt;font style=&quot;font-size: 23px;&quot;&gt;login process&lt;/font&gt;" style="text;html=1;align=center;verticalAlign=middle;resizable=0;points=[];autosize=1;strokeColor=none;fillColor=none;" parent="1" vertex="1">
          <mxGeometry x="60" y="80" width="160" height="40" as="geometry" />
        </mxCell>
        <mxCell id="0ALipL2Myr9kqnd2Wa-G-4" value="&lt;font style=&quot;color: rgb(108, 142, 191);&quot;&gt;JSON:&lt;br&gt;email&lt;br&gt;password&lt;br&gt;&lt;/font&gt;" style="edgeStyle=orthogonalEdgeStyle;rounded=0;orthogonalLoop=1;jettySize=auto;html=1;fillColor=#dae8fc;strokeColor=#6c8ebf;" parent="1" source="0ALipL2Myr9kqnd2Wa-G-1" target="0ALipL2Myr9kqnd2Wa-G-8" edge="1">
          <mxGeometry x="-0.5" relative="1" as="geometry">
            <Array as="points">
              <mxPoint x="220" y="180" />
              <mxPoint x="220" y="180" />
            </Array>
            <mxPoint as="offset" />
          </mxGeometry>
        </mxCell>
        <mxCell id="0ALipL2Myr9kqnd2Wa-G-28" value="" style="group" parent="1" vertex="1" connectable="0">
          <mxGeometry x="550" y="175" width="250" height="275" as="geometry" />
        </mxCell>
        <mxCell id="0ALipL2Myr9kqnd2Wa-G-26" value="" style="rounded=0;whiteSpace=wrap;html=1;dashed=1;fillColor=none;" parent="0ALipL2Myr9kqnd2Wa-G-28" vertex="1">
          <mxGeometry x="16.666666666666668" y="31.976744186046513" width="233.33333333333334" height="243.0232558139535" as="geometry" />
        </mxCell>
        <mxCell id="0ALipL2Myr9kqnd2Wa-G-27" value="SecurityFilterChain" style="text;html=1;align=center;verticalAlign=middle;resizable=0;points=[];autosize=1;strokeColor=none;fillColor=none;" parent="0ALipL2Myr9kqnd2Wa-G-28" vertex="1">
          <mxGeometry width="120" height="30" as="geometry" />
        </mxCell>
        <mxCell id="0ALipL2Myr9kqnd2Wa-G-32" value="" style="group" parent="0ALipL2Myr9kqnd2Wa-G-28" vertex="1" connectable="0">
          <mxGeometry x="91.66666666666667" y="38.37209302325582" width="83.33333333333334" height="29.418604651162795" as="geometry" />
        </mxCell>
        <mxCell id="0ALipL2Myr9kqnd2Wa-G-30" value="" style="rounded=0;whiteSpace=wrap;html=1;fillColor=#CCE5FF;" parent="0ALipL2Myr9kqnd2Wa-G-32" vertex="1">
          <mxGeometry width="83.33333333333334" height="12.790697674418608" as="geometry" />
        </mxCell>
        <mxCell id="0ALipL2Myr9kqnd2Wa-G-31" value="" style="rounded=0;whiteSpace=wrap;html=1;fillColor=#CCE5FF;" parent="0ALipL2Myr9kqnd2Wa-G-32" vertex="1">
          <mxGeometry y="16.62790697674419" width="83.33333333333334" height="12.790697674418608" as="geometry" />
        </mxCell>
        <mxCell id="0ALipL2Myr9kqnd2Wa-G-33" value="" style="group" parent="0ALipL2Myr9kqnd2Wa-G-28" vertex="1" connectable="0">
          <mxGeometry x="91.66666666666667" y="234.99866169372532" width="83.33333333333334" height="29.418604651162795" as="geometry" />
        </mxCell>
        <mxCell id="0ALipL2Myr9kqnd2Wa-G-34" value="" style="rounded=0;whiteSpace=wrap;html=1;fillColor=#CCE5FF;" parent="0ALipL2Myr9kqnd2Wa-G-33" vertex="1">
          <mxGeometry width="83.33333333333334" height="12.790697674418608" as="geometry" />
        </mxCell>
        <mxCell id="0ALipL2Myr9kqnd2Wa-G-35" value="" style="rounded=0;whiteSpace=wrap;html=1;fillColor=#CCE5FF;" parent="0ALipL2Myr9kqnd2Wa-G-33" vertex="1">
          <mxGeometry y="16.62790697674419" width="83.33333333333334" height="12.790697674418608" as="geometry" />
        </mxCell>
        <mxCell id="0ALipL2Myr9kqnd2Wa-G-45" style="edgeStyle=orthogonalEdgeStyle;rounded=0;orthogonalLoop=1;jettySize=auto;html=1;startArrow=classic;startFill=1;" parent="0ALipL2Myr9kqnd2Wa-G-28" source="0ALipL2Myr9kqnd2Wa-G-37" target="0ALipL2Myr9kqnd2Wa-G-36" edge="1">
          <mxGeometry relative="1" as="geometry" />
        </mxCell>
        <mxCell id="0ALipL2Myr9kqnd2Wa-G-37" value="JwtAuthenticationProcessingFilter" style="rounded=0;whiteSpace=wrap;html=1;fillColor=#CCE5FF;" parent="0ALipL2Myr9kqnd2Wa-G-28" vertex="1">
          <mxGeometry x="33.33" y="136" width="200" height="19" as="geometry" />
        </mxCell>
        <mxCell id="0ALipL2Myr9kqnd2Wa-G-47" style="edgeStyle=orthogonalEdgeStyle;rounded=0;orthogonalLoop=1;jettySize=auto;html=1;entryX=0.5;entryY=0;entryDx=0;entryDy=0;startArrow=classic;startFill=1;" parent="0ALipL2Myr9kqnd2Wa-G-28" source="0ALipL2Myr9kqnd2Wa-G-38" target="0ALipL2Myr9kqnd2Wa-G-34" edge="1">
          <mxGeometry relative="1" as="geometry" />
        </mxCell>
        <mxCell id="0ALipL2Myr9kqnd2Wa-G-51" style="edgeStyle=orthogonalEdgeStyle;rounded=0;orthogonalLoop=1;jettySize=auto;html=1;startArrow=classic;startFill=1;" parent="0ALipL2Myr9kqnd2Wa-G-28" source="0ALipL2Myr9kqnd2Wa-G-38" target="0ALipL2Myr9kqnd2Wa-G-37" edge="1">
          <mxGeometry relative="1" as="geometry" />
        </mxCell>
        <mxCell id="0ALipL2Myr9kqnd2Wa-G-38" value="&lt;span style=&quot;font-size: 9px;&quot;&gt;CustomJson&lt;/span&gt;&lt;br style=&quot;font-size: 9px;&quot;&gt;&lt;span style=&quot;font-size: 9px;&quot;&gt;UsernamePasswordAuthenticationFilter&lt;/span&gt;" style="rounded=0;whiteSpace=wrap;html=1;fillColor=#CCE5FF;" parent="0ALipL2Myr9kqnd2Wa-G-28" vertex="1">
          <mxGeometry x="33.33" y="180" width="200" height="34.18" as="geometry" />
        </mxCell>
        <mxCell id="0ALipL2Myr9kqnd2Wa-G-40" value="" style="group" parent="0ALipL2Myr9kqnd2Wa-G-28" vertex="1" connectable="0">
          <mxGeometry x="33.333333333333336" y="83.13953488372093" width="200" height="38.37209302325582" as="geometry" />
        </mxCell>
        <mxCell id="0ALipL2Myr9kqnd2Wa-G-36" value="LogoutFilter" style="rounded=0;whiteSpace=wrap;html=1;fillColor=#CCE5FF;" parent="0ALipL2Myr9kqnd2Wa-G-40" vertex="1">
          <mxGeometry y="9.593023255813955" width="200" height="19.18604651162791" as="geometry" />
        </mxCell>
        <mxCell id="0ALipL2Myr9kqnd2Wa-G-39" value="&lt;font style=&quot;font-size: 9px;&quot;&gt;&lt;br&gt;&lt;/font&gt;" style="text;html=1;align=center;verticalAlign=middle;resizable=0;points=[];autosize=1;strokeColor=none;fillColor=none;" parent="0ALipL2Myr9kqnd2Wa-G-40" vertex="1">
          <mxGeometry x="83.33333333333334" width="20" height="30" as="geometry" />
        </mxCell>
        <mxCell id="0ALipL2Myr9kqnd2Wa-G-44" style="edgeStyle=orthogonalEdgeStyle;rounded=0;orthogonalLoop=1;jettySize=auto;html=1;entryX=0.5;entryY=0;entryDx=0;entryDy=0;startArrow=classic;startFill=1;" parent="0ALipL2Myr9kqnd2Wa-G-28" source="0ALipL2Myr9kqnd2Wa-G-31" target="0ALipL2Myr9kqnd2Wa-G-36" edge="1">
          <mxGeometry relative="1" as="geometry" />
        </mxCell>
        <mxCell id="0ALipL2Myr9kqnd2Wa-G-29" style="edgeStyle=orthogonalEdgeStyle;rounded=0;orthogonalLoop=1;jettySize=auto;html=1;exitX=1;exitY=0.5;exitDx=0;exitDy=0;entryX=0;entryY=0.449;entryDx=0;entryDy=0;entryPerimeter=0;" parent="1" source="0ALipL2Myr9kqnd2Wa-G-25" target="0ALipL2Myr9kqnd2Wa-G-26" edge="1">
          <mxGeometry relative="1" as="geometry" />
        </mxCell>
        <mxCell id="0ALipL2Myr9kqnd2Wa-G-61" style="edgeStyle=orthogonalEdgeStyle;rounded=0;orthogonalLoop=1;jettySize=auto;html=1;entryX=0;entryY=0.5;entryDx=0;entryDy=0;endArrow=none;endFill=0;" parent="1" source="0ALipL2Myr9kqnd2Wa-G-38" target="0ALipL2Myr9kqnd2Wa-G-53" edge="1">
          <mxGeometry relative="1" as="geometry">
            <Array as="points">
              <mxPoint x="817" y="360" />
              <mxPoint x="817" y="325" />
            </Array>
          </mxGeometry>
        </mxCell>
        <mxCell id="0ALipL2Myr9kqnd2Wa-G-75" value="" style="group" parent="1" vertex="1" connectable="0">
          <mxGeometry x="1100" y="420" width="190" height="140" as="geometry" />
        </mxCell>
        <mxCell id="0ALipL2Myr9kqnd2Wa-G-72" value="" style="rounded=0;whiteSpace=wrap;html=1;fillColor=none;dashed=1;" parent="0ALipL2Myr9kqnd2Wa-G-75" vertex="1">
          <mxGeometry y="20" width="190" height="120" as="geometry" />
        </mxCell>
        <mxCell id="0ALipL2Myr9kqnd2Wa-G-73" value="AuthenticationProvider" style="text;html=1;align=center;verticalAlign=middle;resizable=0;points=[];autosize=1;strokeColor=none;fillColor=none;" parent="0ALipL2Myr9kqnd2Wa-G-75" vertex="1">
          <mxGeometry width="140" height="30" as="geometry" />
        </mxCell>
        <mxCell id="0ALipL2Myr9kqnd2Wa-G-76" value="" style="group" parent="0ALipL2Myr9kqnd2Wa-G-75" vertex="1" connectable="0">
          <mxGeometry x="60" y="30" width="73.33" height="20" as="geometry" />
        </mxCell>
        <mxCell id="0ALipL2Myr9kqnd2Wa-G-77" value="" style="rounded=0;whiteSpace=wrap;html=1;fillColor=#FFFFCC;" parent="0ALipL2Myr9kqnd2Wa-G-76" vertex="1">
          <mxGeometry width="73.33" height="8.695652173913043" as="geometry" />
        </mxCell>
        <mxCell id="0ALipL2Myr9kqnd2Wa-G-78" value="" style="rounded=0;whiteSpace=wrap;html=1;fillColor=#FFFFCC;" parent="0ALipL2Myr9kqnd2Wa-G-76" vertex="1">
          <mxGeometry y="11.304347826086955" width="73.33" height="8.695652173913043" as="geometry" />
        </mxCell>
        <mxCell id="0ALipL2Myr9kqnd2Wa-G-79" value="" style="group" parent="0ALipL2Myr9kqnd2Wa-G-75" vertex="1" connectable="0">
          <mxGeometry x="58.33999999999992" y="110" width="73.33" height="20" as="geometry" />
        </mxCell>
        <mxCell id="0ALipL2Myr9kqnd2Wa-G-80" value="" style="rounded=0;whiteSpace=wrap;html=1;fillColor=#FFFFCC;" parent="0ALipL2Myr9kqnd2Wa-G-79" vertex="1">
          <mxGeometry width="73.33" height="8.695652173913043" as="geometry" />
        </mxCell>
        <mxCell id="0ALipL2Myr9kqnd2Wa-G-81" value="" style="rounded=0;whiteSpace=wrap;html=1;fillColor=#FFFFCC;" parent="0ALipL2Myr9kqnd2Wa-G-79" vertex="1">
          <mxGeometry y="11.304347826086955" width="73.33" height="8.695652173913043" as="geometry" />
        </mxCell>
        <mxCell id="0ALipL2Myr9kqnd2Wa-G-82" value="DaoAuthenticaionProvider" style="rounded=0;whiteSpace=wrap;html=1;fillColor=#FFFFCC;" parent="0ALipL2Myr9kqnd2Wa-G-75" vertex="1">
          <mxGeometry x="13.33" y="72.5" width="166.67" height="15" as="geometry" />
        </mxCell>
        <mxCell id="0ALipL2Myr9kqnd2Wa-G-83" style="edgeStyle=orthogonalEdgeStyle;rounded=0;orthogonalLoop=1;jettySize=auto;html=1;entryX=0.5;entryY=0;entryDx=0;entryDy=0;startArrow=classic;startFill=1;" parent="0ALipL2Myr9kqnd2Wa-G-75" source="0ALipL2Myr9kqnd2Wa-G-78" target="0ALipL2Myr9kqnd2Wa-G-82" edge="1">
          <mxGeometry relative="1" as="geometry" />
        </mxCell>
        <mxCell id="0ALipL2Myr9kqnd2Wa-G-84" style="edgeStyle=orthogonalEdgeStyle;rounded=0;orthogonalLoop=1;jettySize=auto;html=1;entryX=0.52;entryY=0.044;entryDx=0;entryDy=0;entryPerimeter=0;startArrow=classic;startFill=1;" parent="0ALipL2Myr9kqnd2Wa-G-75" source="0ALipL2Myr9kqnd2Wa-G-82" target="0ALipL2Myr9kqnd2Wa-G-80" edge="1">
          <mxGeometry relative="1" as="geometry" />
        </mxCell>
        <mxCell id="0ALipL2Myr9kqnd2Wa-G-90" style="edgeStyle=orthogonalEdgeStyle;rounded=0;orthogonalLoop=1;jettySize=auto;html=1;entryX=1.003;entryY=0.443;entryDx=0;entryDy=0;entryPerimeter=0;" parent="1" source="0ALipL2Myr9kqnd2Wa-G-82" target="0ALipL2Myr9kqnd2Wa-G-87" edge="1">
          <mxGeometry relative="1" as="geometry" />
        </mxCell>
        <mxCell id="0ALipL2Myr9kqnd2Wa-G-91" style="edgeStyle=orthogonalEdgeStyle;rounded=0;orthogonalLoop=1;jettySize=auto;html=1;entryX=1;entryY=0.5;entryDx=0;entryDy=0;exitX=1;exitY=0.5;exitDx=0;exitDy=0;" parent="1" source="0ALipL2Myr9kqnd2Wa-G-62" target="0ALipL2Myr9kqnd2Wa-G-72" edge="1">
          <mxGeometry relative="1" as="geometry" />
        </mxCell>
        <mxCell id="0ALipL2Myr9kqnd2Wa-G-93" style="edgeStyle=orthogonalEdgeStyle;rounded=0;orthogonalLoop=1;jettySize=auto;html=1;exitX=1;exitY=0.5;exitDx=0;exitDy=0;" parent="1" source="0ALipL2Myr9kqnd2Wa-G-53" edge="1">
          <mxGeometry relative="1" as="geometry">
            <mxPoint x="1100" y="350" as="targetPoint" />
            <Array as="points">
              <mxPoint x="1080" y="325" />
              <mxPoint x="1080" y="350" />
            </Array>
          </mxGeometry>
        </mxCell>
        <mxCell id="0ALipL2Myr9kqnd2Wa-G-100" value="" style="group" parent="1" vertex="1" connectable="0">
          <mxGeometry x="850" y="295" width="220" height="60" as="geometry" />
        </mxCell>
        <mxCell id="0ALipL2Myr9kqnd2Wa-G-70" value="" style="group;fillColor=default;container=0;" parent="0ALipL2Myr9kqnd2Wa-G-100" vertex="1" connectable="0">
          <mxGeometry width="220" height="60" as="geometry" />
        </mxCell>
        <mxCell id="0ALipL2Myr9kqnd2Wa-G-53" value="" style="rounded=0;whiteSpace=wrap;html=1;container=0;fillColor=#FFCCCC;" parent="0ALipL2Myr9kqnd2Wa-G-100" vertex="1">
          <mxGeometry width="220" height="60" as="geometry" />
        </mxCell>
        <mxCell id="0ALipL2Myr9kqnd2Wa-G-60" value="password" style="rounded=0;whiteSpace=wrap;html=1;container=0;fillColor=#CCFFCC;" parent="0ALipL2Myr9kqnd2Wa-G-100" vertex="1">
          <mxGeometry x="112" y="35" width="100" height="20" as="geometry" />
        </mxCell>
        <mxCell id="0ALipL2Myr9kqnd2Wa-G-58" value="email" style="rounded=0;whiteSpace=wrap;html=1;container=0;fillColor=#CCFFCC;" parent="0ALipL2Myr9kqnd2Wa-G-100" vertex="1">
          <mxGeometry x="8" y="35" width="100" height="20" as="geometry" />
        </mxCell>
        <mxCell id="0ALipL2Myr9kqnd2Wa-G-63" value="UsernamePasswordAuthenticationToken" style="text;html=1;align=center;verticalAlign=middle;resizable=0;points=[];autosize=1;strokeColor=none;fillColor=none;fontSize=11;container=0;" parent="0ALipL2Myr9kqnd2Wa-G-100" vertex="1">
          <mxGeometry width="220" height="30" as="geometry" />
        </mxCell>
        <mxCell id="0ALipL2Myr9kqnd2Wa-G-101" value="" style="group" parent="1" vertex="1" connectable="0">
          <mxGeometry x="850" y="370" width="220" height="60" as="geometry" />
        </mxCell>
        <mxCell id="0ALipL2Myr9kqnd2Wa-G-102" value="" style="group;fillColor=default;container=0;" parent="0ALipL2Myr9kqnd2Wa-G-101" vertex="1" connectable="0">
          <mxGeometry width="220" height="60" as="geometry" />
        </mxCell>
        <mxCell id="0ALipL2Myr9kqnd2Wa-G-103" value="" style="rounded=0;whiteSpace=wrap;html=1;container=0;fillColor=#FFCCCC;" parent="0ALipL2Myr9kqnd2Wa-G-101" vertex="1">
          <mxGeometry width="220" height="60" as="geometry" />
        </mxCell>
        <mxCell id="0ALipL2Myr9kqnd2Wa-G-104" value="Authorities" style="rounded=0;whiteSpace=wrap;html=1;container=0;fillColor=#CCFFCC;" parent="0ALipL2Myr9kqnd2Wa-G-101" vertex="1">
          <mxGeometry x="112" y="35" width="100" height="20" as="geometry" />
        </mxCell>
        <mxCell id="0ALipL2Myr9kqnd2Wa-G-105" value="UserDetails" style="rounded=0;whiteSpace=wrap;html=1;container=0;fillColor=#CCFFCC;" parent="0ALipL2Myr9kqnd2Wa-G-101" vertex="1">
          <mxGeometry x="8" y="35" width="100" height="20" as="geometry" />
        </mxCell>
        <mxCell id="0ALipL2Myr9kqnd2Wa-G-106" value="UsernamePasswordAuthenticationToken" style="text;html=1;align=center;verticalAlign=middle;resizable=0;points=[];autosize=1;strokeColor=none;fillColor=none;fontSize=11;container=0;" parent="0ALipL2Myr9kqnd2Wa-G-101" vertex="1">
          <mxGeometry width="220" height="30" as="geometry" />
        </mxCell>
        <mxCell id="0ALipL2Myr9kqnd2Wa-G-108" style="edgeStyle=orthogonalEdgeStyle;rounded=0;orthogonalLoop=1;jettySize=auto;html=1;entryX=1;entryY=0.5;entryDx=0;entryDy=0;endArrow=none;endFill=0;" parent="1" source="0ALipL2Myr9kqnd2Wa-G-62" target="0ALipL2Myr9kqnd2Wa-G-103" edge="1">
          <mxGeometry relative="1" as="geometry">
            <Array as="points">
              <mxPoint x="1080" y="370" />
              <mxPoint x="1080" y="400" />
            </Array>
          </mxGeometry>
        </mxCell>
        <mxCell id="0ALipL2Myr9kqnd2Wa-G-109" style="edgeStyle=orthogonalEdgeStyle;rounded=0;orthogonalLoop=1;jettySize=auto;html=1;entryX=1;entryY=0.75;entryDx=0;entryDy=0;exitX=0;exitY=0.5;exitDx=0;exitDy=0;" parent="1" source="0ALipL2Myr9kqnd2Wa-G-103" target="0ALipL2Myr9kqnd2Wa-G-38" edge="1">
          <mxGeometry relative="1" as="geometry" />
        </mxCell>
        <mxCell id="wbBMKEb6pIF2NKicYfld-6" style="edgeStyle=orthogonalEdgeStyle;rounded=0;orthogonalLoop=1;jettySize=auto;html=1;entryX=1;entryY=0.5;entryDx=0;entryDy=0;" edge="1" parent="1" source="0ALipL2Myr9kqnd2Wa-G-62" target="wbBMKEb6pIF2NKicYfld-3">
          <mxGeometry relative="1" as="geometry" />
        </mxCell>
        <mxCell id="0ALipL2Myr9kqnd2Wa-G-62" value="" style="rounded=0;whiteSpace=wrap;html=1;container=0;fillColor=#CCCCFF;" parent="1" vertex="1">
          <mxGeometry x="1100" y="320" width="190" height="90" as="geometry" />
        </mxCell>
        <mxCell id="0ALipL2Myr9kqnd2Wa-G-64" value="AuthenticationManager" style="text;html=1;align=center;verticalAlign=middle;resizable=0;points=[];autosize=1;strokeColor=none;fillColor=none;container=0;" parent="1" vertex="1">
          <mxGeometry x="1120" y="320" width="150" height="30" as="geometry" />
        </mxCell>
        <mxCell id="0ALipL2Myr9kqnd2Wa-G-66" value="ProviderManager" style="rounded=0;whiteSpace=wrap;html=1;container=0;fillColor=#E6E6E6;" parent="1" vertex="1">
          <mxGeometry x="1135" y="355" width="120" height="40" as="geometry" />
        </mxCell>
        <mxCell id="0ALipL2Myr9kqnd2Wa-G-110" value="" style="group" parent="1" vertex="1" connectable="0">
          <mxGeometry x="890" y="469" width="140" height="70" as="geometry" />
        </mxCell>
        <mxCell id="0ALipL2Myr9kqnd2Wa-G-87" value="" style="rounded=0;whiteSpace=wrap;html=1;fillColor=none;dashed=1;container=0;" parent="0ALipL2Myr9kqnd2Wa-G-110" vertex="1">
          <mxGeometry width="140" height="70" as="geometry" />
        </mxCell>
        <mxCell id="0ALipL2Myr9kqnd2Wa-G-85" value="UserDetailsService" style="rounded=0;whiteSpace=wrap;html=1;container=0;fillColor=#FFCC99;" parent="0ALipL2Myr9kqnd2Wa-G-110" vertex="1">
          <mxGeometry x="10" y="11" width="120" height="20" as="geometry" />
        </mxCell>
        <mxCell id="0ALipL2Myr9kqnd2Wa-G-86" value="PasswordEncoder" style="rounded=0;whiteSpace=wrap;html=1;container=0;fillColor=#FFCC99;" parent="0ALipL2Myr9kqnd2Wa-G-110" vertex="1">
          <mxGeometry x="10" y="41" width="120" height="20" as="geometry" />
        </mxCell>
        <mxCell id="wbBMKEb6pIF2NKicYfld-1" value="LoginSuccessHandler" style="rounded=0;whiteSpace=wrap;html=1;fillColor=#00FFFF;" vertex="1" parent="1">
          <mxGeometry x="1070" y="220" width="120" height="20" as="geometry" />
        </mxCell>
        <mxCell id="wbBMKEb6pIF2NKicYfld-2" value="LoginFailureHandler" style="rounded=0;whiteSpace=wrap;html=1;fillColor=#00FFFF;" vertex="1" parent="1">
          <mxGeometry x="1200" y="220" width="120" height="20" as="geometry" />
        </mxCell>
        <mxCell id="wbBMKEb6pIF2NKicYfld-7" style="edgeStyle=orthogonalEdgeStyle;rounded=0;orthogonalLoop=1;jettySize=auto;html=1;entryX=0.5;entryY=1;entryDx=0;entryDy=0;exitX=0.5;exitY=0;exitDx=0;exitDy=0;" edge="1" parent="1" source="wbBMKEb6pIF2NKicYfld-3" target="wbBMKEb6pIF2NKicYfld-2">
          <mxGeometry relative="1" as="geometry" />
        </mxCell>
        <mxCell id="wbBMKEb6pIF2NKicYfld-11" value="Failure" style="edgeLabel;html=1;align=center;verticalAlign=middle;resizable=0;points=[];" vertex="1" connectable="0" parent="wbBMKEb6pIF2NKicYfld-7">
          <mxGeometry x="0.3556" y="-1" relative="1" as="geometry">
            <mxPoint as="offset" />
          </mxGeometry>
        </mxCell>
        <mxCell id="wbBMKEb6pIF2NKicYfld-8" style="edgeStyle=orthogonalEdgeStyle;rounded=0;orthogonalLoop=1;jettySize=auto;html=1;entryX=0.5;entryY=1;entryDx=0;entryDy=0;exitX=0.5;exitY=1;exitDx=0;exitDy=0;" edge="1" parent="1" source="wbBMKEb6pIF2NKicYfld-3" target="wbBMKEb6pIF2NKicYfld-1">
          <mxGeometry relative="1" as="geometry" />
        </mxCell>
        <mxCell id="wbBMKEb6pIF2NKicYfld-10" value="Success" style="edgeLabel;html=1;align=center;verticalAlign=middle;resizable=0;points=[];" vertex="1" connectable="0" parent="wbBMKEb6pIF2NKicYfld-8">
          <mxGeometry x="0.3344" y="2" relative="1" as="geometry">
            <mxPoint as="offset" />
          </mxGeometry>
        </mxCell>
        <mxCell id="wbBMKEb6pIF2NKicYfld-3" value="" style="rhombus;whiteSpace=wrap;html=1;direction=south;" vertex="1" parent="1">
          <mxGeometry x="1180" y="265" width="30" height="30" as="geometry" />
        </mxCell>
        <mxCell id="wbBMKEb6pIF2NKicYfld-4" value="Authenticated?" style="text;html=1;align=center;verticalAlign=middle;resizable=0;points=[];autosize=1;strokeColor=none;fillColor=none;" vertex="1" parent="1">
          <mxGeometry x="1190" y="290" width="100" height="30" as="geometry" />
        </mxCell>
      </root>
    </mxGraphModel>
  </diagram>
</mxfile>
